<?xml version="1.0" encoding="utf-8"?>
<!-- Generator: Adobe Illustrator 19.0.0, SVG Export Plug-In . SVG Version: 6.00 Build 0)  -->
<svg version="1.1" id="Capa_1" xmlns="http://www.w3.org/2000/svg" xmlns:xlink="http://www.w3.org/1999/xlink" x="0px" y="0px"
	 viewBox="32 -232 1024 1024" style="enable-background:new 32 -232 1024 1024;" xml:space="preserve">
<style type="text/css">
	.st0{stroke:#FFFFFF;stroke-width:24;stroke-miterlimit:10;}
</style>
<path class="st0" d="M177-136l66,746.6L543.8,696l299.6-85.4L910.7-136H177z M787.9,564.6l-244.1,69.6l-245.2-69.6L241.9-76.6h603.8
	L787.9,564.6z M313,17l1.7,24.3l22.7,253.5h206.5v-0.1h112.9l-11.4,118.5L543,440.9v0.2h-0.8l-102.4-27.7l-6.5-73.2h-91l11.3,144.7
	l188.6,52h1.7v-0.4l187.7-51.7l1.7-16.3l21.2-242.2l3.2-24.3H543v0.2H421.9l-8.2-94.2h352.1l1.7-19.5l4.8-47.2L774,17H543H313z"/>
</svg>
