<?xml version="1.0" encoding="utf-8"?>
<!-- Generator: Adobe Illustrator 19.0.0, SVG Export Plug-In . SVG Version: 6.00 Build 0)  -->
<svg version="1.1" id="Capa_1" xmlns="http://www.w3.org/2000/svg" xmlns:xlink="http://www.w3.org/1999/xlink" x="0px" y="0px"
	 viewBox="-467 269 24 24" style="enable-background:new -467 269 24 24;" xml:space="preserve">
<style type="text/css">
	.st0{fill:#FFFFFF;}
</style>
<path class="st0" d="M-453.9,272.5l0.7,1.1l0.7-1.1v1.5h1v-3h-1l-0.7,1.1l-0.6-1.1h-1.1v3h1V272.5z M-448.6,274v-1h-1.4v-2h-1v3
	H-448.6z M-457.2,274h1v-2h0.9v-1h-2.8v1h0.9V274z M-460.4,273h0.9v1h1v-3h-1v1h-0.9v-1h-1v3h1V273z M-462,275l1.2,14.4l5.8,1.6
	l5.8-1.6l1.2-14.4H-462z M-450.7,279.6h-6.8l0.2,1.8h6.4l-0.5,5.5l-3.6,1l-3.6-1l-0.3-2.9h1.8l0.1,1.5l2,0.5l2-0.5l0.2-2.3h-6.2
	l-0.5-5.3h9C-450.5,277.9-450.7,279.6-450.7,279.6z"/>
</svg>
